<svg xmlns="http://www.w3.org/2000/svg" xmlns:xlink="http://www.w3.org/1999/xlink" version="1.1" id="Layer_1" x="0px" y="0px" viewBox="0 0 752.1 612.6" style="enable-background:new 0 0 752.1 612.6;" xml:space="preserve" transform="matrix(1, 0, 0, 1, 0, 0)">
<style type="text/css">
	.st0{fill:#000000;}
</style>
<path class="st0" d="M456.9,130.7l-16,35.4l-51.7-57.2c-0.8,2.1-1.9,5-3.1,7.7c-3.1,6.6-8.9,7.9-14.8,3.7  c-5.4-3.9-10.8-7.7-16.4-11.3c-7-4.5-14.3-4.1-21.4-0.3c-10.8,5.8-21.6,11.9-32.3,17.9c-1.7,1.1-3.2,2.4-4.6,3.8L46.3,369.8  c-2,2-4.2,3.8-6.6,5.2c110-115.4,222.8-228,336.6-340.2C489.6,146.6,601.6,259,711.5,373.5l-0.8,1c-1.5-1.3-2.9-2.5-4.3-3.8  c-60.8-58-121.6-115.9-182.3-173.9c-21.4-20.5-42.6-41.3-63.8-62C459.1,133.5,457.9,132.2,456.9,130.7c-1.3-0.9-2.6-1.8-3.8-2.9  C428.7,103.9,404.4,80,380,56.1c-1.2-1.1-2.4-2.2-4.4-4L331.7,99c13.9-10,29.1-1.1,44.1,9.1c1.4-3.3,2.4-6.2,3.8-8.8  c1.3-2.9,2.9-5.6,4.8-8.1c4.4-5.4,10.3-4.1,13.3,2.1c3.4,7.2,7.3,14.1,11.8,20.6c8.9,12.3,18.4,24.1,27.7,36  c0.9,1.1,1.8,2.2,2.6,3.2L456.9,130.7z" fill="#000000"/>
<path class="st0" d="M243.3,311.3c9,11.8,20.6,15.1,36.4,10c-3.6,5.7-7.4,10.6-10.1,16.1s-4.2,11.5-7.2,17  c2.8-8.9,5.6-17.8,8.5-26.9c-15.1,2-26.6-5.3-36.3-17.8c8.8-5.2,17.5-10.1,25.9-15.4c6.2-3.9,12.2-8,18.1-12.4  c1.6-1.4,2.8-3.2,3.4-5.3c6.9-20.3,17.4-37.9,37-48.3c6.5-3.4,14-4.8,21-7.4c2.7-1,5.6-2.1,7.5-4c7.8-7.7,15.2-15.9,22.9-23.7  s13.2-16.3,14.1-27.4c0.2-0.8,0.4-1.5,0.7-2.3c23.5,0.8,45.6,18,42.8,42.7c-1,8.6-3.1,17-4.8,26.4c4.8-2.7,8.9-5.1,13.1-7.3  c4.6-2.4,9-1.5,10.6,2.8c3,8.4,5.5,17,7.3,25.7c1.3,6.1-0.7,12.4-5.3,16.6c-15.9,14-18.5,32.4-19.6,52c-1.3,23.6-3.9,47.1-6,70.7  c-0.1,0.8-0.2,1.5-0.5,3.6l-6.5-11.3l-0.8,0.2l6.7,46.3l-0.9,0.4l-14.2-27.3l-1.1,0.1v57.4l-1.1,0.3l-7.8-19.8l0.8-0.4l4.4,8.1  l0.7-0.2c-1.3-23.8-2.7-47.7-4-71.5l1-0.4c2.1,3.6,4.3,7.1,6.4,10.7l0.9-0.3c-3.3-18.1-6.6-36.2-9.9-54.3l0.7-0.3  c5.4,9,10.7,17.9,16.9,28.2c0.5-5.5,0.9-9.6,1.2-13.8c1.3-17.8,2.4-35.5,4.1-53.3c0.9-9.4,5.1-17.5,11.8-24.2  c0.8-0.8,1.6-1.7,2.3-2.6c9.3-10.8,10-16.3,3-30l-32,18.6c2.9-14.7,5.6-28.4,8.2-42.1c0.4-1.8,0.7-3.6,1.1-5.4  c3.4-16.1-4-28.1-20.3-32.6c-5.9,17.4-20.4,28-32.7,40.2c-7.1,7-11.5,13.6-10.7,24.3c0.8,11.5-4,17.3-14.3,21.1  c-0.5-7.6-1-14.9-1.3-22.3c0-0.9,1.5-2,2.5-2.7c2.9-2,6-3.9,9-5.9c-0.2-0.6-0.4-1.1-0.6-1.6c-5.1,1-10.4,1.4-15.2,3.1  c-10.9,3.8-20.3,9.9-27.1,19.6c-6.2,8.7-11.4,18-15.4,27.8c-2.3,5.5-8.8,9.7-14.3,13.2c-8.5,5.4-17.8,9.7-26.8,14.5  C246.1,309.6,244.7,310.5,243.3,311.3z" fill="#000000"/>
<path class="st0" d="M55.9,516.9v14.6h-8.4v-42h9.1c6.8,0,13.6,0,20.5,0c8.7,0.1,11,2.4,11.1,10.9c0,1.2,0,2.3,0,3.5  c0,9.8-1,11-10.8,13.1l16,14.5c-7,0.5-13,2-17.4-4.2c-1.7-2.4-4.4-4.1-6.2-6.4C66.3,516.2,61.8,515.5,55.9,516.9z M56.2,508.5  c6.9,0,13.3,0.2,19.5-0.2c1.3-0.1,3.4-2.2,3.4-3.4c-0.1-2.6,2.1-7-2.2-7.5c-6.8-0.7-13.8-0.2-20.7-0.2V508.5z" fill="#000000"/>
<path class="st0" d="M627.7,531.4v-34.6c10,0,19.7-0.4,29.5,0.1c5.6,0.3,7.8,7.2,5.5,14.1c-0.6,1.7-0.6,3.5,0,5.2  c3.5,9-0.1,15.1-9.6,15.4c-7.7,0.3-15.3,0.1-23,0C629.3,531.8,628.5,531.6,627.7,531.4z M636.2,524.4c5.4,0,10.7,0.2,15.9-0.2  c1.1-0.1,2.7-2.2,2.8-3.4s-1.6-3.5-2.6-3.5c-5.2-0.4-10.5-0.2-16-0.2L636.2,524.4z M636.2,509.7c5.5,0,10.8,0.1,16-0.1  c0.9,0,2.3-1.8,2.3-2.7s-1.5-2.7-2.3-2.7c-5.2-0.3-10.5-0.1-15.9-0.1L636.2,509.7z" fill="#000000"/>
<path class="st0" d="M266.1,507.1l-7.4,1.4c-0.3-3.5-2-4.8-5.5-4.5c-5.4,0.4-10.9,0.1-16.9,0.1V524h21.3v-5.7h-12.1v-6.7h20.5  c0,4.8,0.5,9.6-0.3,14.2c-0.4,2.1-3.3,5.3-5.2,5.4c-9.1,0.6-18.3,0.4-27.4,0.2c-3.9-0.1-5.5-3-5.6-6.4c-0.2-7.1-0.2-14.3,0-21.5  c0.1-4,2.5-6.6,6.6-6.7c8.3-0.2,16.6-0.4,25,0C265,497.1,266.4,499.6,266.1,507.1z" fill="#000000"/>
<path class="st0" d="M314.1,531.6c-4.3,0-8.7,0.1-13,0s-6.5-2.5-6.6-6.6c-0.2-7.2-0.2-14.3,0-21.5c0.1-3.8,2.2-6.5,6.1-6.6  c9.3-0.2,18.6-0.2,27.9,0c3.9,0.1,5.9,2.9,5.9,6.7c0.1,7,0.1,14,0,21c0,4.5-2.5,6.8-6.8,6.9S318.5,531.7,314.1,531.6L314.1,531.6z   M303,524h23v-19.7h-23V524z" fill="#000000"/>
<path class="st0" d="M597.1,531.5c-4.7,0-9.3,0.1-14,0c-3.8-0.1-5.8-2.4-5.9-6.1c-0.1-7.3-0.1-14.6,0-22c0-4,2.4-6.4,6.2-6.5  c9.1-0.2,18.3-0.2,27.4,0c3.9,0.1,6.1,2.7,6.2,6.5c0.2,7.2,0.2,14.3,0,21.5c-0.1,4-2.3,6.6-6.5,6.7  C606.1,531.7,601.6,531.6,597.1,531.5L597.1,531.5z M608.6,524.2v-19.6h-22.9v19.6H608.6z" fill="#000000"/>
<path class="st0" d="M692.5,531.6c-4.5,0-9,0.1-13.5,0c-4.2-0.1-6.5-2.6-6.6-6.7c-0.2-7.2-0.2-14.3,0-21.5c0.1-3.8,2.3-6.4,6.2-6.5  c9.1-0.2,18.3-0.2,27.5,0c4.1,0.1,6.3,2.8,6.3,6.9c0,7,0.1,14,0,21c0,4.2-2.2,6.6-6.4,6.8C701.5,531.7,697,531.6,692.5,531.6z   M680.8,524h23.1v-19.4h-23.1V524z" fill="#000000"/>
<path class="st0" d="M374.1,497.2c8.9,0,17.2-0.5,25.4,0.1c8.6,0.7,13.6,7.1,13.8,16.1c0.3,9.7-3.9,16.4-12.7,17.4  c-8.6,1-17.5,0.2-26.6,0.2V497.2z M382.4,524.6c5.7-0.3,10.9-0.2,15.9-1c4.9-0.8,6.9-4.1,6.9-9.5s-2.2-8.9-7-9.5  c-5.2-0.6-10.5-0.1-15.8-0.1L382.4,524.6z" fill="#000000"/>
<path class="st0" d="M133,496.9v7.2h-24.7v5.8H123v7.3h-14.8v7.1h24.9v7H99.8v-34.6H133z" fill="#000000"/>
<path class="st0" d="M424.4,496.8h33.1v7.2h-24.9v5.6h14.9c0.1,2.7,0.2,4.7,0.3,7.5h-15.1v7.2h25.3v7.3h-33.5V496.8z" fill="#000000"/>
<path class="st0" d="M188.3,524.2h20.5v-27.3h8.3c0,9.8,0.1,19.4-0.1,29c0.1,3-2.3,5.6-5.4,5.7c-0.2,0-0.3,0-0.5,0  c-8.1,0.1-16.3,0.2-24.4,0.1c-4.2-0.1-6.4-2.7-6.4-6.8c-0.1-9.1,0-18.3,0-27.8h7.9L188.3,524.2z" fill="#000000"/>
<path class="st0" d="M533.5,531.5v-41.6h8.7v33.9h28.4v7.8L533.5,531.5z" fill="#000000"/>
<path class="st0" d="M149.8,503.9v7.5h13.5v7.6h-13.7v12.4h-8V497h32.7v6.9L149.8,503.9z" fill="#000000"/>
<path class="st0" d="M473.9,524.4h24.3v7.2h-31.9v-34.8h7.7V524.4z" fill="#000000"/>
<path class="st0" d="M276.3,496.9h7.7v34.7h-7.7V496.9z" fill="#000000"/>
</svg>